<?xml version="1.0" standalone="no"?>
<!DOCTYPE svg PUBLIC "-//W3C//DTD SVG 20010904//EN"
 "http://www.w3.org/TR/2001/REC-SVG-20010904/DTD/svg10.dtd">
<svg version="1.0" xmlns="http://www.w3.org/2000/svg"
 width="200.000000pt" height="200.000000pt" viewBox="0 0 200.000000 200.000000"
 preserveAspectRatio="xMidYMid meet">

<g transform="translate(0.000000,200.000000) scale(0.100000,-0.100000)"
fill="#000000" stroke="none">
<path d="M974 1489 c-1 -27 2 -49 6 -49 21 0 28 85 8 93 -9 3 -13 -10 -14 -44z"/>
<path d="M950 1433 c0 -13 -5 -23 -11 -23 -5 0 -7 5 -4 10 10 16 -29 12 -51
-6 -10 -8 -13 -13 -6 -9 7 4 12 0 12 -9 0 -15 12 -21 33 -17 14 2 -13 -38 -33
-49 -29 -16 -39 -12 -46 16 -4 17 -11 23 -21 20 -8 -3 -17 -6 -19 -6 -11 0 -2
-30 12 -38 9 -5 15 -13 14 -18 0 -5 8 -10 19 -12 11 -2 25 -10 31 -18 7 -8 21
-14 32 -14 13 0 25 -13 37 -41 11 -24 34 -50 57 -66 l39 -25 -40 37 c-34 32
-36 35 -10 20 17 -10 46 -29 65 -42 19 -13 4 6 -35 43 -38 36 -56 57 -38 45
44 -30 45 -26 7 15 -19 19 -34 45 -34 57 0 18 2 19 10 7 9 -13 14 -11 35 13
l25 28 25 -27 c23 -25 37 -61 48 -124 4 -21 4 -20 6 7 1 41 15 49 33 20 10
-16 13 -44 10 -99 l-4 -78 -28 20 c-36 26 -48 26 -25 -1 19 -20 19 -20 -9 -10
-35 14 -69 14 -61 1 8 -12 -36 -51 -48 -43 -5 3 -15 19 -23 37 -8 19 -13 24
-14 13 0 -10 7 -34 15 -54 14 -32 14 -34 -1 -22 -9 7 -21 25 -27 39 l-10 25
-7 -30 c-5 -20 -8 -23 -9 -10 -1 15 -3 17 -10 6 -6 -9 -10 1 -12 32 -2 25 -1
43 4 40 4 -2 7 3 7 12 0 9 4 14 9 11 5 -3 11 8 13 24 5 34 3 35 -32 15 -14 -8
-37 -14 -51 -15 -14 0 -47 -11 -73 -24 -27 -14 -55 -22 -62 -19 -8 3 -21 0
-28 -7 -8 -6 -27 -15 -43 -20 -25 -7 -23 -8 17 -9 33 0 59 7 95 29 45 26 85
38 85 25 0 -2 -9 -19 -20 -37 -24 -39 -25 -76 -5 -125 18 -43 18 -46 3 -37 -8
5 -9 -4 -4 -34 6 -39 5 -42 -17 -42 -20 0 -65 -19 -106 -44 -12 -8 -11 -11 5
-17 13 -5 7 -8 -23 -8 -23 -1 -45 -5 -48 -11 -4 -7 131 -10 399 -10 379 0 404
1 402 18 -2 13 -14 18 -58 20 -48 3 -56 6 -71 32 -10 16 -26 31 -36 35 -11 3
-38 31 -62 63 -24 31 -57 70 -73 86 -22 21 -25 26 -9 17 12 -6 25 -16 28 -21
4 -7 13 -7 25 0 15 8 18 18 15 48 l-5 37 10 -35 c5 -19 7 -51 4 -71 -5 -35 -4
-36 26 -37 28 -1 30 2 23 21 -8 25 -8 55 1 112 5 29 4 34 -3 20 -8 -16 -10
-10 -11 30 -2 28 -2 53 -1 58 0 4 -4 7 -10 7 -6 0 -9 -6 -6 -13 3 -8 -1 -14
-8 -14 -10 0 -10 7 -3 29 12 35 -8 70 -57 99 -18 11 -40 31 -49 44 -9 13 -26
30 -38 36 -17 9 -24 8 -34 -5 -11 -15 -12 -15 -18 0 -3 8 -6 23 -6 33 0 9 -7
26 -15 37 -14 19 -14 18 -15 -3z m15 -42 c3 -5 1 -12 -5 -16 -5 -3 -10 1 -10
9 0 18 6 21 15 7z m-59 -427 c14 -12 15 -14 3 -11 -26 8 -39 -13 -39 -65 0
-36 -4 -48 -15 -48 -26 0 -28 26 -4 77 12 26 21 51 21 56 -3 12 13 8 34 -9z
m298 -131 c4 -8 -3 -13 -18 -13 -13 0 -29 -7 -37 -16 -13 -16 -89 -15 -184 2
-33 6 -36 8 -20 15 17 6 16 8 -12 14 -23 5 -33 13 -33 27 0 24 43 68 67 68 10
0 35 5 56 11 28 7 37 15 33 25 -3 8 28 -15 69 -52 41 -38 77 -74 79 -81z"/>
<path d="M790 1386 c0 -9 5 -16 10 -16 6 0 10 4 10 9 0 6 -4 13 -10 16 -5 3
-10 -1 -10 -9z"/>
<path d="M996 655 c-3 -8 -1 -15 4 -15 6 0 10 -37 10 -85 0 -50 -4 -85 -10
-85 -5 0 -10 14 -10 30 0 20 -5 30 -16 30 -12 0 -14 -9 -12 -42 3 -42 4 -43
38 -43 l35 0 3 113 c2 105 1 112 -17 112 -10 0 -21 -7 -25 -15z"/>
</g>
</svg>
