<svg id="Layer_1" data-name="Layer 1" xmlns="http://www.w3.org/2000/svg" viewBox="0 0 128 128"><title>CONTACT</title><path d="M44.08,67.94H75.23a1.75,1.75,0,0,0,1.75-1.75V53.02a11.129,11.129,0,0,0-6.018-9.852,14.565,14.565,0,1,0-22.617,0A11.127,11.127,0,0,0,42.33,53.02V66.19A1.75,1.75,0,0,0,44.08,67.94Zm15.574-45A11.065,11.065,0,1,1,48.589,34.008,11.078,11.078,0,0,1,59.654,22.942ZM45.83,53.02a7.6,7.6,0,0,1,5.3-7.227,14.459,14.459,0,0,0,17.049,0,7.6,7.6,0,0,1,5.3,7.227V64.44H45.83Z"/><path d="M121.577,31.942a1.75,1.75,0,0,0,1.75-1.75v-12a1.75,1.75,0,0,0-1.75-1.75h-7.1V6.5a1.75,1.75,0,0,0-1.75-1.75H6.577A1.75,1.75,0,0,0,4.827,6.5v115a1.75,1.75,0,0,0,1.75,1.75H112.73a1.75,1.75,0,0,0,1.75-1.75V67.942h7.1a1.75,1.75,0,0,0,1.75-1.75v-12a1.75,1.75,0,0,0-1.75-1.75h-7.1v-2.5h7.1a1.75,1.75,0,0,0,1.75-1.75v-12a1.75,1.75,0,0,0-1.75-1.75h-7.1v-2.5Zm-1.75-12v8.5H114.48v-8.5ZM110.98,119.75H8.327V8.25H110.98v111.5Zm8.847-63.808v8.5H114.48v-8.5Zm0-18v8.5H114.48v-8.5Z"/><path d="M88.4,81.583H30.9a1.75,1.75,0,0,0,0,3.5H88.4a1.75,1.75,0,0,0,0-3.5Z"/><path d="M88.4,92.25H30.9a1.75,1.75,0,0,0,0,3.5H88.4a1.75,1.75,0,0,0,0-3.5Z"/><path d="M88.4,102.917H30.9a1.75,1.75,0,1,0,0,3.5H88.4a1.75,1.75,0,0,0,0-3.5Z"/><path d="M12.5,10.75a1.75,1.75,0,0,0-1.75,1.75V33.039a1.75,1.75,0,0,0,3.5,0V12.5A1.75,1.75,0,0,0,12.5,10.75Z"/></svg>