<?xml version="1.0" standalone="no"?>
<!DOCTYPE svg PUBLIC "-//W3C//DTD SVG 20010904//EN"
 "http://www.w3.org/TR/2001/REC-SVG-20010904/DTD/svg10.dtd">
<svg version="1.0" xmlns="http://www.w3.org/2000/svg"
 width="400.000000pt" height="400.000000pt" viewBox="0 0 389.000000 642.000000"
 preserveAspectRatio="xMidYMid meet" >

<g transform="translate(0.000000,642.000000) scale(0.100000,-0.100000)"
fill="#aa3a36" stroke="none">
<path d="M1940 5349 c-25 -5 -52 -17 -60 -28 -50 -66 -55 -78 -58 -136 -5 -96
-7 -105 -14 -105 -5 0 -8 -9 -8 -20 0 -30 14 -25 55 21 l37 41 -7 -31 c-5 -26
-4 -31 12 -31 10 0 24 -9 31 -20 7 -12 17 -18 22 -15 5 3 31 7 58 9 47 4 49 3
45 -17 -4 -18 -3 -19 7 -7 10 13 11 13 7 0 -2 -9 -18 -16 -38 -18 -19 -2 -55
-19 -82 -38 -39 -28 -51 -33 -68 -24 -21 12 -17 30 7 30 9 0 14 11 14 36 0 21
-4 33 -10 29 -5 -3 -10 -13 -10 -21 0 -18 -9 -18 -31 2 -25 22 -64 2 -49 -26
5 -10 19 -22 30 -25 11 -3 20 -11 20 -16 0 -6 -5 -7 -12 -3 -23 15 -58 12 -67
-5 -16 -28 -1 -140 20 -151 45 -25 50 -38 48 -147 -1 -63 3 -109 10 -116 14
-14 84 7 136 41 22 15 43 27 47 27 3 0 17 13 31 29 18 20 26 44 29 84 4 48 9
59 39 83 18 15 36 26 39 24 18 -11 120 89 120 118 0 6 11 39 26 74 20 52 24
73 18 111 -9 63 -29 99 -67 122 -18 11 -35 30 -39 42 -5 19 -6 18 -7 -10 -1
-18 5 -47 12 -65 14 -32 12 -57 -3 -57 -4 0 -10 9 -13 19 -3 14 -11 18 -25 14
-18 -4 -20 -2 -13 29 3 18 5 44 3 58 -3 25 -4 25 -91 25 -96 0 -96 0 -62 -55
15 -25 15 -25 -6 -7 -11 10 -23 31 -27 48 -3 18 -12 29 -22 29 -25 0 -14 6 24
13 24 5 32 3 32 -8 0 -22 119 -21 146 1 18 14 15 15 -42 11 -34 -3 -68 -1 -75
4 -9 6 9 9 49 9 40 0 62 4 62 11 0 8 -17 10 -57 4 -93 -11 -108 -11 -105 3 2
13 -4 14 -68 1z m160 -174 c0 -8 -4 -15 -10 -15 -5 0 -10 7 -10 15 0 8 5 15
10 15 6 0 10 -7 10 -15z m-185 -15 c-3 -5 -13 -10 -21 -10 -8 0 -12 5 -9 10 3
6 13 10 21 10 8 0 12 -4 9 -10z m255 -15 c0 -9 -9 -15 -22 -14 -18 1 -19 2 -5
6 9 2 15 9 12 14 -4 5 -1 9 4 9 6 0 11 -7 11 -15z m55 -155 c3 -6 -1 -7 -9 -4
-18 7 -21 14 -7 14 6 0 13 -4 16 -10z m-23 -87 c-8 -13 -9 -9 -7 18 5 45 7 49
12 22 2 -12 0 -30 -5 -40z m-42 43 c0 -3 -4 -8 -10 -11 -5 -3 -10 -1 -10 4 0
6 5 11 10 11 6 0 10 -2 10 -4z m-340 -42 c0 -2 -11 -3 -24 -2 -14 1 -23 5 -20
9 4 7 44 0 44 -7z"/>
<path d="M2144 4627 c-17 -7 -80 -42 -140 -79 -144 -87 -174 -92 -174 -26 l0
42 -27 -26 c-16 -14 -61 -47 -101 -73 -41 -27 -79 -60 -88 -77 -30 -57 -43
-165 -33 -268 16 -162 19 -254 9 -275 -15 -32 -29 -129 -19 -135 8 -6 2 -38
-17 -84 -5 -12 -4 -17 3 -13 15 10 3 -40 -13 -54 -15 -12 -19 -45 -6 -52 4 -2
2 -2 -5 -1 -8 2 -12 -9 -11 -31 1 -19 7 -35 13 -35 14 0 16 -30 3 -47 -5 -7
-7 -17 -3 -23 3 -5 -1 -10 -9 -10 -12 0 -16 -11 -16 -43 0 -24 -5 -48 -12 -55
-7 -7 -12 -37 -12 -67 0 -30 -3 -50 -7 -44 -13 21 -24 -101 -23 -256 0 -133 4
-173 22 -235 40 -138 81 -295 87 -335 13 -86 29 -142 52 -189 15 -30 23 -59
20 -75 -6 -30 4 -53 44 -99 27 -30 28 -36 22 -95 -4 -35 -18 -88 -35 -122 -22
-48 -28 -74 -28 -130 0 -83 14 -114 58 -135 l32 -16 -32 -62 c-29 -56 -31 -65
-19 -85 50 -79 54 -87 37 -87 -9 0 -21 11 -26 25 -33 84 -28 78 -50 57 -13
-12 -18 -25 -14 -36 3 -9 1 -23 -6 -31 -10 -12 -9 -15 9 -15 13 0 21 6 21 18
1 15 2 14 12 -3 6 -11 16 -24 22 -28 6 -5 -25 -7 -69 -4 -47 3 -68 2 -50 -3
17 -4 23 -8 15 -9 -8 -1 8 -8 35 -16 28 -7 140 -18 249 -24 110 -7 219 -17
244 -24 l44 -12 -4 -48 -3 -49 40 5 c22 3 67 1 100 -4 33 -5 72 -9 87 -9 15 0
30 -5 34 -11 5 -9 0 -10 -17 -6 -23 6 -23 5 -5 -8 28 -21 49 -19 41 4 -5 16
-1 19 27 18 22 -1 32 2 31 11 -2 6 2 12 7 12 6 0 10 7 10 16 0 8 -4 13 -9 9
-16 -9 -22 12 -7 24 26 22 5 68 -28 62 -18 -4 -23 21 -10 57 11 31 11 39 -2
48 -12 10 -12 13 2 25 9 7 14 22 11 36 -2 13 -1 23 4 23 16 0 20 68 11 212 -7
119 -13 154 -31 188 -12 23 -17 39 -11 35 21 -13 9 23 -12 38 -30 19 -93 77
-86 77 3 0 25 -16 48 -35 49 -41 65 -44 56 -13 -4 13 -9 32 -10 43 -2 11 -4
23 -5 27 0 4 -19 17 -41 29 -22 12 -38 24 -36 27 3 2 18 -4 35 -14 17 -10 32
-16 35 -13 2 2 -1 25 -8 52 -12 48 -52 87 -101 100 -18 4 -18 5 2 6 12 0 34
-4 49 -9 15 -6 29 -9 31 -6 8 7 -26 109 -43 127 -9 10 -13 22 -9 28 3 6 0 8
-8 5 -8 -3 -18 -1 -22 5 -3 6 1 11 9 11 9 0 16 4 16 9 0 4 -11 6 -25 3 -32 -6
-33 16 -1 24 51 12 19 119 -52 175 -14 10 -20 19 -15 19 6 0 27 -18 46 -39
l35 -39 7 25 c7 29 -12 131 -29 152 -9 12 -8 13 3 6 11 -6 13 -2 7 21 -3 16
-9 52 -12 81 -6 47 -12 56 -55 93 -27 23 -54 51 -60 63 -8 15 3 9 32 -18 24
-22 45 -43 47 -47 2 -5 8 -8 14 -8 6 0 8 14 3 38 -10 52 -10 173 0 196 6 13 5
17 -3 12 -6 -3 -14 -2 -17 4 -4 6 -1 9 6 8 10 -2 14 15 15 59 1 34 7 70 13 80
6 13 6 34 0 64 -6 24 -7 66 -3 94 4 27 8 64 9 80 1 17 5 40 9 53 4 12 3 22 -2
22 -12 0 -23 26 -28 65 -7 57 -13 71 -33 72 -26 2 -36 -13 -33 -50 2 -17 -2
-26 -8 -22 -6 4 -10 -4 -10 -19 0 -24 -29 -84 -57 -118 -10 -11 -11 -18 -3
-23 7 -4 8 -20 4 -43 -7 -37 -12 -66 -13 -89 -1 -7 -7 -13 -15 -13 -8 0 -17
-15 -20 -35 -6 -32 -10 -35 -41 -35 -28 0 -35 4 -35 20 0 11 9 29 20 40 27 27
35 48 75 207 46 177 89 281 121 289 13 3 22 10 19 14 -3 5 -1 11 4 14 4 3 11
20 15 37 l6 32 30 -33 c17 -19 30 -41 30 -51 0 -9 7 -22 15 -29 22 -19 18 -39
-10 -50 -31 -12 -33 -20 -2 -13 22 5 22 5 2 -11 -11 -10 -14 -14 -6 -10 8 4
12 2 10 -5 -3 -7 -8 -12 -13 -11 -14 3 -25 -23 -17 -39 5 -9 6 -21 4 -28 -2
-6 1 -14 6 -18 6 -3 11 1 11 9 0 9 11 41 25 73 21 46 25 67 20 110 -6 56 -27
117 -37 107 -4 -3 -6 21 -6 53 1 66 -6 84 -39 102 -20 10 -23 9 -23 -6 0 -15
-2 -16 -10 -3 -8 13 -10 12 -10 -2 0 -10 -9 -23 -20 -30 -11 -7 -20 -22 -21
-33 0 -16 -3 -13 -14 10 -7 17 -10 32 -7 35 10 7 8 32 -2 49 -7 10 -5 12 4 6
9 -5 10 -2 6 13 -8 25 14 35 58 26 23 -4 36 -1 45 10 17 20 85 21 104 1 22
-21 27 -8 21 54 -4 31 -1 75 5 97 15 56 -1 128 -41 189 -16 25 -71 88 -122
140 -90 93 -91 94 -122 82z m114 -737 c0 -24 0 -24 -13 5 -8 17 -14 24 -15 16
0 -8 -3 -12 -6 -9 -3 4 0 17 7 29 12 23 12 23 20 4 4 -11 8 -31 7 -45z m-21
-32 c-3 -8 -6 -5 -6 6 -1 11 2 17 5 13 3 -3 4 -12 1 -19z m3 -288 c0 -5 -2
-10 -4 -10 -3 0 -8 5 -11 10 -3 6 -1 10 4 10 6 0 11 -4 11 -10z m41 -187 c-12
-20 -14 -14 -5 12 4 9 9 14 11 11 3 -2 0 -13 -6 -23z m-21 -61 c0 -5 -7 -17
-15 -28 -14 -18 -14 -17 -4 9 12 27 19 34 19 19z m-740 -76 c0 -3 -4 -8 -10
-11 -5 -3 -10 -1 -10 4 0 6 5 11 10 11 6 0 10 -2 10 -4z m690 -25 c-6 -12 -15
-21 -21 -21 -5 0 -2 11 8 24 21 28 29 27 13 -3z m-23 -52 c7 -6 13 -17 13 -23
0 -6 -7 -3 -14 6 -7 10 -16 15 -19 11 -4 -3 -7 -1 -7 5 0 6 -6 9 -14 6 -8 -3
-17 0 -21 5 -3 6 -11 9 -16 6 -5 -4 -9 1 -9 10 0 14 3 14 37 0 20 -9 42 -20
50 -26z m-163 -25 c9 -22 8 -23 -13 -17 -12 3 -17 11 -14 19 7 19 19 18 27 -2z
m-56 -86 l0 -53 -13 40 c-8 27 -9 44 -2 53 14 18 14 17 15 -40z m168 -4 c-4
-20 -10 -34 -12 -31 -3 3 -2 21 2 41 3 21 9 35 11 32 3 -3 2 -21 -1 -42z m-14
-89 c-2 -14 -6 -25 -8 -25 -2 0 -4 11 -4 25 0 14 4 25 9 25 4 0 6 -11 3 -25z
m-69 -252 c-7 -2 -19 -2 -25 0 -7 3 -2 5 12 5 14 0 19 -2 13 -5z m247 -365
c10 2 16 -5 16 -17 0 -11 -3 -18 -7 -15 -4 2 -9 1 -12 -3 -2 -5 -2 -2 -1 5 2
6 -3 12 -11 12 -8 0 -15 5 -15 10 0 6 -7 10 -15 10 -8 0 -19 10 -26 22 -11 20
-10 20 22 -3 19 -13 41 -23 49 -21z m111 -655 c13 -16 12 -17 -3 -4 -10 7 -18
15 -18 17 0 8 8 3 21 -13z m44 -73 c8 -13 -15 -13 -35 0 -12 8 -11 10 7 10 12
0 25 -4 28 -10z m15 -230 c0 -15 -5 -12 -26 11 -19 22 -19 22 4 10 12 -6 22
-16 22 -21z m-810 -100 c0 -5 -2 -10 -4 -10 -3 0 -8 5 -11 10 -3 6 -1 10 4 10
6 0 11 -4 11 -10z m758 -116 c-8 -7 -108 -7 -115 0 -4 3 22 6 57 6 35 0 61 -3
58 -6z"/>
<path d="M2230 4039 c0 -5 5 -7 10 -4 6 3 10 8 10 11 0 2 -4 4 -10 4 -5 0 -10
-5 -10 -11z"/>
<path d="M2282 3719 c2 -7 10 -15 17 -17 8 -3 12 1 9 9 -2 7 -10 15 -17 17 -8
3 -12 -1 -9 -9z"/>
<path d="M1578 1273 c7 -3 16 -2 19 1 4 3 -2 6 -13 5 -11 0 -14 -3 -6 -6z"/>
<path d="M2315 1000 c11 -12 20 -28 21 -37 4 -25 24 -41 24 -19 0 13 5 16 17
11 10 -3 0 10 -22 29 -44 38 -69 48 -40 16z"/>
<path d="M2295 980 c3 -5 11 -10 16 -10 6 0 7 5 4 10 -3 6 -11 10 -16 10 -6 0
-7 -4 -4 -10z"/>
<path d="M2066 864 c-11 -28 -7 -35 31 -51 45 -18 160 -12 219 13 52 22 37 27
-39 13 -75 -14 -171 0 -181 27 -7 19 -22 18 -30 -2z"/>
</g>
</svg>
