<?xml version="1.0" standalone="no"?>
<!DOCTYPE svg PUBLIC "-//W3C//DTD SVG 20010904//EN"
 "http://www.w3.org/TR/2001/REC-SVG-20010904/DTD/svg10.dtd">
<svg version="1.0" xmlns="http://www.w3.org/2000/svg"
 width="400.000000pt" height="400.000000pt" viewBox="0 0 433.000000 577.000000"
 preserveAspectRatio="xMidYMid meet">

<g transform="translate(0.000000,577.000000) scale(0.100000,-0.100000)"
fill="#aa3a36" stroke="none">
<path d="M2150 4047 c-3 -3 -43 -11 -90 -17 -147 -20 -217 -66 -271 -178 -36
-73 -14 -172 39 -172 7 0 10 5 7 11 -10 14 24 49 41 42 8 -3 14 -12 14 -20 0
-12 7 -14 33 -8 43 10 56 10 97 0 31 -7 33 -6 21 9 -7 9 -20 16 -27 16 -20 0
-17 13 6 28 18 11 26 9 65 -18 39 -27 44 -36 50 -78 3 -26 8 -55 10 -65 5 -27
-5 -47 -21 -40 -9 3 -14 -2 -14 -16 0 -12 7 -24 15 -27 8 -4 15 -12 15 -20 0
-28 -73 -145 -110 -175 -33 -27 -38 -37 -33 -61 5 -28 -10 -80 -32 -108 -25
-32 -65 -169 -65 -224 0 -37 -9 -78 -25 -118 -14 -34 -30 -92 -36 -128 -6 -36
-15 -89 -20 -119 -5 -30 -9 -85 -9 -122 l0 -69 26 10 c14 6 42 10 63 10 l38 0
-2 -72 c-3 -87 -13 -138 -30 -144 -18 -7 -17 -92 2 -137 13 -29 14 -40 5 -49
-25 -25 -11 -55 58 -126 l70 -72 -15 -36 c-8 -20 -27 -55 -43 -78 -37 -55 -52
-99 -52 -155 0 -36 5 -49 21 -60 20 -12 21 -11 14 6 -14 32 -17 80 -6 87 6 4
11 0 11 -8 0 -13 14 -38 58 -102 11 -17 12 -14 7 18 -7 47 16 86 53 90 35 4
39 28 12 84 -22 49 -43 141 -35 155 10 14 97 55 160 73 138 41 144 44 135 75
-8 28 3 62 16 49 4 -4 15 -3 26 3 16 9 23 7 35 -10 9 -14 25 -21 46 -21 18 0
38 -4 45 -9 19 -12 11 -73 -12 -92 -14 -11 -20 -35 -25 -87 -4 -40 -3 -79 2
-87 5 -9 4 -15 -2 -15 -6 0 -15 8 -20 18 -14 23 -14 -3 0 -29 5 -11 14 -17 19
-14 9 5 12 -4 45 -135 8 -35 26 -83 39 -105 16 -29 20 -48 15 -63 -6 -15 -5
-21 4 -19 6 1 13 -8 15 -21 2 -13 10 -26 18 -29 8 -3 14 -13 14 -22 0 -9 4
-21 9 -27 5 -5 11 -22 13 -39 2 -16 8 -29 15 -28 8 2 9 -6 2 -29 -8 -30 -5
-35 54 -94 49 -49 73 -65 107 -73 24 -5 47 -8 51 -5 8 5 29 -28 29 -45 0 -6
-12 -8 -27 -5 -16 2 -41 1 -58 -4 -28 -8 -27 -9 25 -17 30 -4 93 -11 139 -14
82 -6 85 -7 92 -34 6 -23 1 -36 -29 -75 -29 -39 -31 -44 -11 -31 29 19 50 60
56 108 2 20 11 53 20 73 25 59 13 129 -41 235 -25 50 -46 94 -46 98 0 4 -11
20 -25 37 -14 16 -25 41 -25 54 0 14 -7 41 -15 60 -8 20 -26 102 -40 182 -14
81 -30 159 -34 173 -12 34 4 59 36 59 25 0 188 62 258 98 47 24 167 120 192
155 34 45 45 97 34 149 -11 46 -7 58 11 40 16 -16 48 -15 48 0 0 7 -11 42 -24
78 -14 36 -32 100 -40 143 -9 42 -24 92 -33 111 -18 34 -133 121 -224 170 -31
17 -50 36 -60 58 -22 55 -105 191 -171 281 -35 46 -80 112 -102 146 -44 72
-100 116 -189 151 -34 13 -94 38 -133 56 -68 30 -73 31 -103 16 -24 -11 -35
-12 -43 -4 -9 9 -8 15 4 24 10 8 18 33 21 68 3 30 10 89 17 130 17 105 9 183
-24 253 -38 79 -81 110 -160 115 -33 2 -63 2 -66 -1z m-168 -309 c-9 -9 -15
-9 -24 0 -9 9 -7 12 12 12 19 0 21 -3 12 -12z m334 -63 c26 -39 11 -92 -39
-137 -45 -42 -57 -46 -57 -21 0 15 -1 15 -13 -2 -8 -10 -19 -15 -25 -11 -16 9
-15 26 1 45 8 9 19 36 26 61 23 83 75 114 107 65z m114 -257 c0 -7 -10 -33
-21 -58 -11 -25 -34 -79 -50 -121 -29 -75 -96 -190 -118 -204 -7 -4 -23 1 -38
10 -17 12 -23 13 -17 4 6 -12 5 -12 -9 0 -9 7 -14 17 -12 22 9 13 -33 89 -77
142 -35 42 -37 48 -21 54 32 12 113 74 113 87 0 12 50 46 69 46 6 0 20 -20 32
-45 12 -25 23 -45 25 -45 2 0 11 15 20 32 31 59 104 113 104 76z m-155 -884
c76 -11 81 -17 88 -103 2 -26 -26 -40 -132 -66 -62 -15 -86 -10 -75 14 5 9 9
45 11 81 5 87 8 93 40 86 16 -3 46 -8 68 -12z m264 -183 c47 -16 111 -33 142
-36 49 -6 56 -10 52 -26 -9 -34 -57 -70 -153 -116 -113 -54 -311 -170 -395
-230 -33 -24 -66 -41 -75 -38 -10 3 -22 -6 -33 -25 -25 -41 -52 -38 -99 12
-65 71 -57 89 89 179 68 42 149 104 201 153 90 85 172 156 180 156 3 0 43 -13
91 -29z m-446 10 c16 -6 16 -9 -7 -30 -28 -26 -56 -22 -56 7 0 32 22 40 63 23z
m927 -273 c-25 -22 -65 -54 -90 -71 -90 -61 -137 -106 -143 -137 -7 -33 -21
-38 -43 -16 -10 11 -11 17 -3 22 6 3 15 1 20 -7 6 -10 10 -7 17 11 12 30 65
80 147 140 33 24 75 56 93 72 51 44 53 32 2 -14z m-228 -294 c8 -18 9 -30 2
-42 -8 -11 -7 -29 1 -57 7 -22 17 -89 24 -150 7 -60 16 -129 22 -152 5 -23 9
-57 8 -75 -1 -28 -3 -25 -15 22 -8 30 -16 85 -19 121 -3 37 -13 109 -22 160
-8 52 -15 112 -14 133 0 22 -4 45 -10 53 -9 9 -8 13 0 13 6 0 17 -12 23 -26z
m-779 -120 c8 -8 -3 -34 -14 -34 -5 0 -9 9 -9 20 0 19 11 26 23 14z m82 -93
c3 -7 3 -16 1 -18 -6 -6 -46 35 -46 47 0 14 38 -11 45 -29z m750 -551 c-3 -5
-11 -10 -16 -10 -6 0 -7 5 -4 10 3 6 11 10 16 10 6 0 7 -4 4 -10z"/>
<path d="M2256 3671 c-4 -7 -5 -15 -2 -18 9 -9 19 4 14 18 -4 11 -6 11 -12 0z"/>
<path d="M2243 3605 c-6 -19 -7 -35 -3 -35 12 0 24 21 28 48 4 35 -13 26 -25
-13z"/>
<path d="M1927 3663 c-14 -13 -6 -32 12 -30 25 2 36 37 12 37 -10 0 -21 -3
-24 -7z"/>
<path d="M1988 3653 c7 -3 16 -2 19 1 4 3 -2 6 -13 5 -11 0 -14 -3 -6 -6z"/>
<path d="M1920 3509 c0 -11 4 -18 10 -14 5 3 7 12 3 20 -7 21 -13 19 -13 -6z"/>
<path d="M1868 3493 c7 -3 16 -2 19 1 4 3 -2 6 -13 5 -11 0 -14 -3 -6 -6z"/>
<path d="M1850 3411 c0 -10 87 -20 108 -13 31 11 7 22 -48 22 -33 0 -60 -4
-60 -9z"/>
<path d="M1890 3371 c-15 -4 -20 -10 -13 -14 13 -8 43 1 43 14 0 5 -1 9 -2 8
-2 -1 -14 -4 -28 -8z"/>
<path d="M1737 2221 c-18 -17 -44 -50 -57 -76 -13 -25 -29 -50 -37 -56 -7 -6
-13 -17 -13 -24 0 -13 -96 -160 -141 -214 -16 -20 -29 -41 -29 -48 0 -7 -6
-16 -12 -20 -7 -4 -30 -29 -50 -55 -42 -52 -50 -83 -19 -75 14 3 18 1 14 -9
-3 -8 -11 -14 -19 -14 -10 0 -12 -8 -7 -30 4 -23 2 -30 -11 -30 -8 0 -18 11
-22 25 -5 21 -8 22 -20 10 -18 -18 -18 -29 1 -21 10 3 15 -1 15 -13 0 -11 5
-21 12 -23 8 -3 7 -11 -4 -27 -9 -12 -14 -31 -11 -42 4 -13 0 -19 -12 -19 -11
0 -15 -5 -11 -15 5 -15 -21 -74 -39 -87 -7 -5 -6 -8 0 -8 6 0 11 -9 12 -19 1
-15 -4 -19 -19 -16 -32 6 -33 11 -15 68 24 78 25 127 4 127 -13 0 -81 -93
-122 -166 -11 -20 -28 -40 -37 -45 -32 -18 -86 -98 -81 -119 3 -11 8 -20 12
-20 3 0 7 -13 8 -30 2 -22 -1 -28 -12 -23 -8 3 -12 9 -9 14 3 5 -9 9 -26 9
-29 0 -31 -2 -26 -31 3 -22 1 -28 -7 -21 -7 5 -21 6 -32 2 -19 -7 -19 -7 2
-19 14 -7 20 -17 16 -26 -4 -11 -9 -13 -18 -5 -25 21 -7 -46 29 -108 38 -64
56 -79 76 -67 8 5 5 14 -8 29 -20 21 -42 59 -42 71 0 4 22 -11 49 -34 78 -65
220 -133 181 -86 -16 19 3 20 22 1 25 -25 128 -5 190 37 40 27 52 43 75 100
17 40 54 99 91 145 34 42 81 109 104 147 69 116 104 159 152 185 42 22 61 50
36 50 -6 0 -9 -5 -8 -11 2 -6 -1 -13 -7 -15 -19 -6 -76 128 -75 179 0 31 -4
47 -12 47 -19 -1 -69 -75 -98 -145 -27 -64 -60 -87 -60 -42 0 45 50 158 95
216 97 123 87 93 90 284 3 178 -1 237 -16 237 -4 0 -23 -13 -42 -29z m-637
-941 c0 -5 -4 -10 -10 -10 -5 0 -10 5 -10 10 0 6 5 10 10 10 6 0 10 -4 10 -10z
m-35 -50 c3 -5 1 -10 -4 -10 -6 0 -11 5 -11 10 0 6 2 10 4 10 3 0 8 -4 11 -10z
m-5 -30 c0 -5 -4 -10 -10 -10 -5 0 -10 5 -10 10 0 6 5 10 10 10 6 0 10 -4 10
-10z m111 -25 c16 -9 34 -13 39 -10 6 3 10 -1 10 -10 0 -9 10 -26 23 -38 12
-12 31 -39 42 -61 19 -37 20 -38 26 -15 4 13 7 20 8 15 1 -4 10 2 21 15 23 29
27 13 4 -19 -9 -13 -13 -29 -10 -37 7 -19 -2 -19 -38 0 -16 9 -31 13 -34 10
-12 -11 -30 30 -21 48 12 21 4 37 -17 37 -8 0 -12 5 -9 10 3 6 1 11 -4 11 -6
1 -15 2 -20 3 -5 0 -21 11 -34 23 -14 12 -28 19 -31 16 -3 -4 -6 -1 -6 5 0 16
15 15 51 -3z m156 -87 c-3 -8 -6 -5 -6 6 -1 11 2 17 5 13 3 -3 4 -12 1 -19z
m-274 -32 c3 4 17 -2 30 -13 19 -15 21 -21 11 -30 -9 -9 -15 -9 -24 2 -7 8
-18 15 -24 15 -6 0 -17 9 -24 21 -12 18 -11 19 6 10 11 -6 22 -8 25 -5z m113
-40 c10 -8 16 -18 11 -22 -4 -4 -7 -2 -7 4 0 7 -6 12 -14 12 -8 0 -18 5 -21
10 -9 15 8 12 31 -4z m89 -46 c52 -26 84 -50 66 -50 -5 0 -12 4 -16 10 -3 5
-11 7 -18 5 -7 -3 -24 5 -39 17 -14 13 -35 29 -45 36 -25 17 -8 11 52 -18z
m72 14 c-3 -3 -12 -4 -19 -1 -8 3 -5 6 6 6 11 1 17 -2 13 -5z m-82 -129 c17
-13 25 -24 18 -25 -7 0 -25 11 -40 25 -36 32 -17 32 22 0z"/>
<path d="M1060 1040 c0 -5 5 -10 11 -10 5 0 7 5 4 10 -3 6 -8 10 -11 10 -2 0
-4 -4 -4 -10z"/>
<path d="M2382 1825 c-14 -31 -8 -49 24 -64 18 -8 23 -8 18 0 -3 6 -6 28 -6
50 1 45 -19 53 -36 14z"/>
<path d="M2451 1765 c0 -11 6 -29 14 -39 20 -26 20 0 0 34 -13 22 -14 23 -14
5z"/>
<path d="M2620 1222 c0 -12 19 -26 26 -19 2 2 -2 10 -11 17 -9 8 -15 8 -15 2z"/>
<path d="M843 981 c-10 -15 -5 -29 27 -81 48 -77 54 -84 76 -76 15 6 14 10 -9
34 -14 15 -37 53 -51 85 -14 31 -27 57 -28 57 -2 0 -8 -8 -15 -19z"/>
</g>
</svg>
