<?xml version="1.0" standalone="no"?>
<!DOCTYPE svg PUBLIC "-//W3C//DTD SVG 20010904//EN"
 "http://www.w3.org/TR/2001/REC-SVG-20010904/DTD/svg10.dtd">
<svg version="1.0" xmlns="http://www.w3.org/2000/svg"
 width="400.000000pt" height="400.000000pt" viewBox="0 0 460.000000 542.000000"
 preserveAspectRatio="xMidYMid meet">

<g transform="translate(0.000000,542.000000) scale(0.100000,-0.100000)"
fill="#aa3a36" stroke="none">
<path d="M2200 4784 c-179 -33 -259 -62 -311 -111 -43 -40 -88 -140 -95 -210
-6 -55 -4 -69 21 -118 17 -35 25 -66 22 -82 -5 -28 13 -116 31 -149 6 -11 29
-42 51 -69 23 -27 41 -53 41 -58 0 -5 -15 -23 -32 -41 -18 -18 -46 -51 -63
-73 -16 -23 -34 -39 -38 -36 -4 3 -42 -7 -85 -22 -58 -20 -92 -40 -139 -82
-35 -30 -63 -59 -63 -64 0 -5 23 -9 51 -9 86 0 127 -43 172 -180 46 -139 68
-260 47 -260 -5 0 -7 -7 -4 -15 8 -20 -6 -19 -22 3 -13 16 -13 16 -13 -3 0
-11 6 -31 14 -45 17 -29 19 -44 6 -35 -14 8 -23 -12 -25 -55 -1 -23 2 -36 8
-34 24 9 69 -14 124 -63 61 -53 83 -93 160 -293 24 -62 27 -79 19 -107 -8 -26
-13 -30 -24 -22 -7 6 -10 15 -7 20 3 5 -1 9 -9 9 -8 0 -27 6 -41 14 -42 21
-93 5 -151 -49 -28 -26 -62 -51 -76 -57 -21 -7 -30 -21 -43 -67 -26 -95 -20
-136 24 -154 9 -3 5 -6 -10 -6 -14 0 -32 4 -40 9 -8 5 -10 10 -5 10 6 0 -1 6
-15 13 -13 7 -27 22 -30 35 -6 27 -87 112 -106 112 -8 0 -14 7 -14 15 0 8 -3
15 -7 15 -5 0 -21 11 -37 25 l-29 25 26 0 c34 0 35 17 3 30 -13 5 -27 14 -31
19 -3 6 -17 11 -31 11 -15 0 -41 15 -65 38 -36 33 -41 44 -44 87 -3 54 -12 85
-25 85 -4 0 -11 11 -14 25 -4 14 -11 25 -17 25 -6 0 -7 -6 -3 -12 6 -10 4 -10
-7 0 -18 17 -79 16 -79 -2 0 -7 22 -42 48 -77 26 -35 68 -90 91 -122 l43 -57
-22 -73 c-12 -39 -26 -84 -30 -98 -19 -61 -51 -467 -50 -637 0 -48 -2 -54 -32
-72 -55 -33 -64 -41 -65 -58 -1 -9 -9 -33 -17 -53 -14 -34 -19 -37 -70 -43
-30 -4 -60 -14 -66 -22 -17 -20 -5 -44 22 -44 23 -1 23 -1 -2 -15 -14 -8 -36
-14 -50 -14 -26 -1 -34 3 -115 53 -68 42 -122 51 -190 31 -51 -15 -59 -21 -95
-77 -63 -96 -73 -159 -44 -257 33 -111 153 -196 348 -246 55 -13 110 -33 123
-42 61 -44 88 -53 163 -53 41 0 107 -7 145 -15 39 -8 106 -17 150 -20 89 -7
120 3 144 47 13 23 13 33 0 89 -9 35 -14 84 -12 109 2 25 6 90 9 146 6 99 6
102 -22 144 -16 24 -37 57 -47 74 -26 41 -42 52 -115 77 -51 17 -62 24 -57 38
21 48 25 81 14 107 -17 46 -39 64 -76 64 -28 0 -33 3 -29 18 3 9 6 37 8 62 1
25 6 48 12 52 5 3 9 24 8 47 -1 22 2 42 7 46 5 3 13 36 16 73 4 37 12 72 17
79 11 13 20 71 19 115 0 29 13 38 22 16 3 -8 6 -6 6 5 1 10 9 17 20 17 11 0
21 6 24 13 3 6 5 3 5 -8 -1 -25 67 -137 77 -127 4 4 6 -8 3 -25 -3 -25 0 -34
13 -38 17 -6 34 -48 30 -73 -1 -7 7 -28 19 -47 20 -32 20 -37 6 -67 -9 -21
-15 -61 -15 -108 1 -41 -3 -117 -8 -168 -5 -50 -5 -92 -1 -92 4 0 8 7 8 16 0
12 7 14 29 9 59 -13 99 37 121 153 7 34 16 59 21 57 4 -3 19 -29 32 -58 34
-75 84 -119 175 -155 116 -46 213 -57 492 -55 233 1 249 2 334 27 48 15 108
40 132 56 45 32 69 58 42 48 -12 -5 -10 8 9 60 13 37 29 71 34 76 5 6 9 23 9
40 0 28 1 29 14 11 8 -11 11 -25 8 -33 -3 -8 0 -17 7 -21 7 -4 13 -18 14 -29
1 -12 4 -22 8 -22 4 0 10 -19 14 -42 3 -24 13 -65 22 -91 15 -48 15 -49 -15
-105 -41 -77 -53 -128 -57 -238 -3 -69 -9 -102 -25 -132 -14 -27 -22 -62 -23
-104 l-2 -63 43 -22 c24 -12 77 -27 118 -34 l74 -12 0 -68 c0 -99 8 -105 154
-114 65 -4 163 -4 219 0 97 7 222 27 233 38 10 9 -15 186 -30 214 -8 15 -40
60 -71 98 -31 39 -61 80 -68 91 -34 61 -99 191 -102 204 -2 8 -8 35 -15 58 -8
31 -8 47 -1 56 8 10 4 16 -15 25 -33 15 -26 35 14 39 42 4 41 19 -3 28 -25 4
-41 16 -55 39 -25 40 -36 45 -105 45 -42 0 -60 -5 -82 -24 -29 -25 -102 -45
-104 -30 -5 56 -5 72 3 87 6 12 5 23 -1 31 -6 7 -8 16 -4 19 3 4 1 7 -6 7 -7
0 -11 8 -9 17 2 10 -5 26 -16 37 -17 17 -17 20 -2 28 19 10 22 29 4 26 -13 -3
-15 29 -5 81 4 20 2 31 -4 31 -7 0 -9 11 -7 25 3 13 1 22 -3 19 -14 -8 -10 81
4 95 10 11 9 12 -1 6 -10 -5 -13 -2 -10 10 4 25 28 31 29 8 0 -14 2 -15 6 -3
3 8 11 19 17 23 7 6 4 7 -6 3 -10 -3 -20 -1 -23 5 -4 5 -11 7 -16 4 -15 -10 2
29 19 43 10 8 12 12 4 12 -10 0 -10 5 -2 20 13 25 27 26 34 3 3 -10 3 -1 0 20
-5 40 3 67 16 48 3 -7 7 5 8 26 2 51 8 77 29 132 17 47 30 65 48 68 6 1 23 5
38 8 17 5 27 3 27 -4 0 -6 -5 -11 -10 -11 -6 0 -5 -6 2 -14 7 -8 16 -12 21 -9
12 7 8 -22 -5 -35 -9 -9 -9 -15 -2 -20 14 -10 15 -55 1 -64 -8 -5 -5 -8 8 -8
15 0 16 -3 7 -9 -11 -7 -11 -28 2 -122 11 -77 13 -131 7 -166 -4 -30 -4 -56 1
-61 5 -5 13 -74 18 -153 6 -115 8 -80 5 176 -3 345 -12 436 -59 574 -14 40
-27 75 -29 77 -2 3 -24 -16 -49 -41 -25 -25 -47 -43 -50 -40 -3 3 -11 -1 -18
-10 -7 -8 -18 -15 -25 -15 -7 0 -21 -12 -31 -27 -33 -46 -66 -76 -73 -66 -3 5
-20 15 -38 22 -41 16 -57 36 -71 87 -16 55 -17 52 22 60 19 3 37 12 40 20 7
18 7 18 -44 -5 -24 -11 -50 -17 -59 -14 -28 10 -61 46 -61 66 0 16 -5 19 -27
14 -26 -5 -78 2 -132 19 -16 5 -22 4 -18 -3 9 -14 -19 -37 -33 -28 -5 3 -14
-4 -19 -17 -8 -18 -10 -19 -10 -5 -1 18 66 160 114 240 23 40 73 87 93 87 4 0
17 7 28 16 10 8 14 13 7 10 -6 -4 -16 7 -22 25 -8 25 -6 42 11 92 35 103 40
109 132 157 94 48 114 77 47 66 -22 -3 -52 -11 -68 -18 -15 -6 -34 -10 -42 -9
-8 2 -25 -3 -38 -10 -33 -18 -40 -4 -18 36 21 41 17 49 -18 36 -37 -14 -62 7
-54 47 7 33 100 280 123 325 8 15 35 46 59 69 25 22 43 43 40 46 -3 3 -31 -12
-63 -35 -31 -22 -69 -43 -84 -46 -14 -4 -33 -10 -42 -13 -27 -10 -19 18 25 85
49 75 48 96 -4 95 -25 -1 -37 3 -37 12 0 23 -25 16 -55 -16 -16 -16 -33 -30
-38 -30 -4 0 -1 7 7 16 17 17 20 25 9 23 -5 -1 -23 -1 -41 0 -30 1 -33 4 -27
24 3 12 3 17 -2 11 -4 -6 -24 -9 -45 -6 -32 3 -38 9 -53 49 -16 42 -16 45 1
64 13 14 14 19 4 19 -11 0 -11 3 -2 12 13 13 16 39 5 37 -26 -4 -33 4 -33 36
0 19 4 35 9 35 13 0 21 -27 15 -47 -4 -11 -3 -14 3 -7 4 6 16 14 27 17 13 5
17 13 11 30 -3 12 -9 31 -11 42 -5 20 -5 20 7 0 7 -10 16 -33 20 -50 5 -21 6
-14 4 25 -5 73 -13 92 -36 85 -11 -4 -19 -2 -19 4 0 6 6 11 13 11 14 0 37 80
37 126 0 71 -123 241 -207 287 -51 27 -137 41 -193 31z m268 -609 c-6 -11 -17
-24 -24 -28 -8 -4 -14 -19 -14 -32 0 -18 -4 -22 -20 -18 -11 3 -20 1 -20 -5 0
-6 -8 -9 -17 -7 -10 2 -21 4 -25 4 -4 1 -19 12 -33 25 -29 27 -26 46 7 46 11
0 43 18 71 41 l51 40 17 -23 c13 -17 15 -27 7 -43z m-247 -72 c-1 -7 9 -11 26
-10 19 1 28 -3 31 -15 2 -13 -3 -18 -17 -18 -12 0 -21 4 -21 9 0 5 -12 11 -27
13 -27 3 -28 6 -30 63 l-2 60 21 -45 c12 -25 20 -50 19 -57z m87 -96 c-25 -9
-33 -4 -24 18 5 13 9 13 26 3 20 -13 20 -13 -2 -21z m-28 -27 c8 -5 11 -10 5
-10 -5 0 -17 5 -25 10 -8 5 -10 10 -5 10 6 0 17 -5 25 -10z m354 -35 c16 -12
17 -15 4 -15 -8 0 -21 7 -28 15 -16 19 -1 19 24 0z m-97 -102 c-3 -10 -5 -4
-5 12 0 17 2 24 5 18 2 -7 2 -21 0 -30z m143 -329 c0 -13 -3 -14 -14 -5 -11 9
-23 8 -51 -4 -53 -22 -78 -18 -30 4 51 25 95 27 95 5z m-64 -147 c-11 -7 -28
-20 -38 -30 -17 -16 -17 -19 -2 -48 19 -39 11 -50 -11 -15 -24 36 -13 74 28
91 39 17 49 18 23 2z m191 -359 c-3 -8 -6 -5 -6 6 -1 11 2 17 5 13 3 -3 4 -12
1 -19z m-580 -114 c-3 -3 -12 -4 -19 -1 -8 3 -5 6 6 6 11 1 17 -2 13 -5z m566
-296 c56 -38 89 -84 92 -129 3 -55 -8 -56 -24 -3 -16 55 -83 117 -153 142 -42
14 -46 18 -26 23 30 7 68 -4 111 -33z m-52 -26 c63 -40 97 -84 104 -136 12
-77 -3 -87 -19 -14 -14 62 -121 149 -187 152 -34 1 -37 3 -22 14 28 20 76 14
124 -16z m-761 -7 c8 -9 1 -14 -28 -18 -67 -11 -170 -130 -173 -201 -1 -13 -4
-8 -10 14 -5 19 -6 45 -4 57 6 27 121 152 149 163 24 8 51 2 66 -15z m51 -35
c31 -17 22 -29 -17 -24 -24 3 -46 -1 -63 -12 -46 -29 -111 -105 -123 -145 -19
-64 -28 -50 -20 32 3 23 59 92 106 128 40 32 82 39 117 21z m644 -38 c41 -22
71 -45 73 -55 3 -12 -13 -35 -41 -62 -40 -37 -49 -54 -68 -125 -14 -55 -30
-90 -45 -103 -13 -11 -24 -27 -24 -34 0 -7 -6 -13 -14 -13 -8 0 -20 -13 -27
-29 -7 -16 -16 -28 -20 -25 -4 2 -16 -9 -26 -26 -9 -17 -22 -29 -28 -26 -5 2
-11 -7 -11 -19 -2 -21 -47 -75 -64 -75 -4 0 -10 -5 -12 -12 -2 -6 -12 -9 -21
-5 -16 6 -16 9 -2 44 8 21 23 43 33 50 57 40 57 40 43 57 -10 12 -17 13 -27 5
-17 -14 -58 7 -50 27 3 8 2 14 -3 14 -5 0 -11 9 -14 20 -4 17 -10 20 -32 14
-38 -9 -77 28 -64 63 12 33 12 34 -14 29 -12 -2 -33 4 -45 15 l-23 18 45 56
c26 31 46 60 46 65 0 12 -33 13 -44 3 -4 -5 -11 -8 -14 -9 -4 0 -20 -6 -35
-12 -16 -7 -38 -12 -50 -12 -12 0 -30 -7 -40 -15 -30 -22 -94 -29 -112 -12
-23 24 -18 37 15 37 l29 0 -25 25 c-14 14 -24 31 -22 38 5 16 87 56 116 57 13
0 39 -12 59 -27 l35 -27 -16 39 c-21 51 -15 54 16 7 14 -22 30 -35 39 -32 8 2
66 7 129 10 121 5 134 9 209 67 24 18 51 33 60 32 9 0 47 -17 86 -37z m359
-71 c7 -11 -49 -35 -63 -26 -6 3 -11 13 -11 21 0 16 65 21 74 5z m-904 -195
c0 -3 -4 -8 -10 -11 -5 -3 -10 -1 -10 4 0 6 5 11 10 11 6 0 10 -2 10 -4z m210
-191 c0 -10 6 -12 17 -8 12 5 5 -9 -17 -36 -19 -24 -43 -53 -52 -65 l-17 -21
6 24 c6 22 4 22 -18 11 -19 -10 -22 -10 -12 0 6 7 9 18 7 24 -3 7 5 21 17 32
13 10 19 13 15 7 -4 -7 -2 -13 3 -13 6 0 11 7 11 15 0 17 20 44 33 45 4 0 7
-7 7 -15z m-120 -24 c-12 -23 -29 -35 -37 -27 -7 7 27 44 40 45 4 1 3 -8 -3
-18z m417 -23 c39 -41 102 -172 89 -185 -10 -10 -56 16 -56 32 0 8 -4 15 -9
15 -5 0 -11 10 -15 23 -3 12 -22 40 -42 62 -37 41 -55 74 -47 88 10 18 42 4
80 -35z m-91 -103 c28 -60 25 -75 -12 -75 -49 0 -85 85 -52 118 23 23 39 12
64 -43z m-436 18 c0 -5 -6 -20 -14 -35 -10 -18 -10 -25 -2 -22 7 3 17 -14 25
-43 7 -27 16 -59 21 -73 19 -57 20 -81 5 -103 -8 -13 -12 -28 -8 -32 5 -5 -5
2 -21 15 -57 49 -94 87 -105 108 -10 19 -9 20 23 15 31 -5 34 -3 34 21 0 22
-6 27 -37 32 -46 8 -75 23 -46 24 19 1 19 1 2 11 -21 13 -12 32 12 24 11 -3
32 7 57 29 39 35 54 43 54 29z m1010 -17 c0 -3 -4 -8 -10 -11 -5 -3 -10 -1
-10 4 0 6 5 11 10 11 6 0 10 -2 10 -4z m-677 -66 c3 -11 2 -20 -2 -20 -10 0
-31 37 -24 44 9 9 20 -2 26 -24z m-99 -5 c-4 -8 -7 -15 -9 -15 -2 0 -5 7 -9
15 -3 9 0 15 9 15 9 0 12 -6 9 -15z m459 -53 c14 -15 28 -38 32 -52 l8 -25
-27 25 c-14 14 -37 39 -51 56 -21 28 -22 31 -6 27 11 -3 30 -17 44 -31z m75
31 c-10 -2 -18 -11 -18 -19 0 -12 -2 -12 -14 -2 -16 15 -2 28 29 27 17 -1 17
-2 3 -6z m-340 -45 c-5 -36 -25 -32 -30 6 -3 31 -2 33 15 25 11 -6 17 -19 15
-31z m200 -5 c4 -24 -26 -40 -34 -18 -8 21 3 47 19 43 6 -3 13 -14 15 -25z
m-314 1 c20 -8 21 -50 2 -57 -19 -8 -26 1 -26 35 0 30 1 31 24 22z m-144 -13
c0 -21 -13 -41 -26 -41 -17 0 -18 22 -2 38 14 14 28 16 28 3z m89 -51 c0 -9
-4 -8 -9 5 -5 11 -9 27 -9 35 0 9 4 8 9 -5 5 -11 9 -27 9 -35z"/>
<path d="M2055 1830 c-3 -5 -16 -10 -28 -11 l-22 0 22 -11 c17 -8 25 -7 38 5
8 9 11 18 6 22 -5 3 -12 1 -16 -5z"/>
<path d="M2580 4169 c0 -5 5 -7 10 -4 6 3 10 8 10 11 0 2 -4 4 -10 4 -5 0 -10
-5 -10 -11z"/>
<path d="M2871 3867 c-51 -54 -70 -82 -60 -86 6 -2 23 6 37 16 15 11 42 28 60
37 34 17 34 29 2 46 -14 8 -23 5 -39 -13z"/>
<path d="M2935 3870 c3 -5 13 -10 21 -10 8 0 12 5 9 10 -3 6 -13 10 -21 10 -8
0 -12 -4 -9 -10z"/>
<path d="M1440 3550 c-12 -8 -11 -10 7 -10 12 0 25 5 28 10 8 13 -15 13 -35 0z"/>
<path d="M3150 3490 c0 -30 6 -36 26 -22 7 4 8 15 3 30 -12 32 -29 27 -29 -8z"/>
<path d="M1439 3419 c-13 -11 -18 -18 -11 -14 57 29 65 35 51 35 -9 0 -27 -9
-40 -21z"/>
<path d="M1475 3414 l-30 -25 40 6 c68 10 78 15 64 31 -17 21 -40 17 -74 -12z"/>
<path d="M1463 3379 c-23 -6 -47 -16 -53 -24 -11 -13 -7 -13 30 0 23 8 53 15
66 15 12 0 26 5 29 10 7 12 -14 11 -72 -1z"/>
<path d="M3291 3365 c1 -36 10 -59 25 -62 7 -1 10 6 7 17 -3 11 -10 20 -15 20
-6 0 -8 6 -5 13 3 8 1 20 -4 28 -6 10 -9 5 -8 -16z"/>
<path d="M1356 3271 c-10 -11 -16 -26 -14 -33 3 -8 10 -6 23 10 14 15 26 20
43 15 18 -4 23 -2 20 8 -7 22 -52 22 -72 0z"/>
<path d="M1300 3231 c-7 -15 -7 -21 0 -21 12 0 25 28 17 36 -3 3 -10 -4 -17
-15z"/>
<path d="M1347 3173 c-4 -3 -22 -6 -41 -5 -22 1 -36 -4 -40 -14 -3 -8 -11 -12
-17 -9 -6 4 -9 1 -7 -6 3 -17 -50 -79 -69 -79 -17 0 -17 -41 1 -65 13 -18 15
-18 39 -2 30 19 74 64 88 89 8 14 6 17 -8 12 -10 -3 -5 2 12 12 27 16 28 18
10 25 -19 7 -19 8 1 8 21 1 51 27 42 36 -3 3 -8 2 -11 -2z"/>
<path d="M1705 3000 c-3 -5 -2 -10 4 -10 5 0 13 5 16 10 3 6 2 10 -4 10 -5 0
-13 -4 -16 -10z"/>
<path d="M3131 1994 c0 -11 3 -14 6 -6 3 7 2 16 -1 19 -3 4 -6 -2 -5 -13z"/>
<path d="M1531 1904 c0 -11 3 -14 6 -6 3 7 2 16 -1 19 -3 4 -6 -2 -5 -13z"/>
<path d="M1541 1474 c0 -11 3 -14 6 -6 3 7 2 16 -1 19 -3 4 -6 -2 -5 -13z"/>
</g>
</svg>
